<svg width="75" height="70" viewBox="0 0 75 70" fill="none" xmlns="http://www.w3.org/2000/svg">
<path fill-rule="evenodd" clip-rule="evenodd" d="M53.2219 7.20125C53.4402 7.40445 53.6133 7.64585 53.7315 7.91161C53.8497 8.17737 53.9105 8.46227 53.9105 8.75C53.9105 9.03774 53.8497 9.32264 53.7315 9.5884C53.6133 9.85416 53.4402 10.0956 53.2219 10.2988L26.7516 35L53.2219 59.7013C53.662 60.112 53.9092 60.6691 53.9092 61.25C53.9092 61.8309 53.662 62.388 53.2219 62.7988C52.7818 63.2095 52.1849 63.4403 51.5625 63.4403C50.9402 63.4403 50.3433 63.2095 49.9032 62.7988L21.7782 36.5488C21.5599 36.3456 21.3867 36.1042 21.2686 35.8384C21.1504 35.5726 21.0896 35.2877 21.0896 35C21.0896 34.7123 21.1504 34.4274 21.2686 34.1616C21.3867 33.8958 21.5599 33.6545 21.7782 33.4513L49.9032 7.20125C50.1209 6.99754 50.3795 6.83592 50.6643 6.72564C50.949 6.61536 51.2543 6.55859 51.5625 6.55859C51.8708 6.55859 52.1761 6.61536 52.4608 6.72564C52.7456 6.83592 53.0042 6.99754 53.2219 7.20125Z" fill="black"/>
</svg>
