<svg width="75" height="70" viewBox="0 0 75 70" fill="none" xmlns="http://www.w3.org/2000/svg">
<path fill-rule="evenodd" clip-rule="evenodd" d="M21.7783 62.7987C21.5601 62.5955 21.3869 62.3542 21.2687 62.0884C21.1506 61.8226 21.0898 61.5377 21.0898 61.25C21.0898 60.9623 21.1506 60.6774 21.2687 60.4116C21.3869 60.1458 21.5601 59.9044 21.7783 59.7012L48.2486 35L21.7783 10.2987C21.3382 9.88799 21.091 9.33089 21.091 8.75C21.091 8.1691 21.3382 7.612 21.7783 7.20125C22.2184 6.79049 22.8153 6.55973 23.4377 6.55973C24.0601 6.55973 24.657 6.79049 25.0971 7.20125L53.2221 33.4512C53.4403 33.6544 53.6135 33.8958 53.7317 34.1616C53.8498 34.4274 53.9106 34.7123 53.9106 35C53.9106 35.2877 53.8498 35.5726 53.7317 35.8384C53.6135 36.1042 53.4403 36.3455 53.2221 36.5487L25.0971 62.7987C24.8794 63.0025 24.6207 63.1641 24.336 63.2744C24.0512 63.3846 23.746 63.4414 23.4377 63.4414C23.1294 63.4414 22.8242 63.3846 22.5394 63.2744C22.2547 63.1641 21.996 63.0025 21.7783 62.7987Z" fill="black"/>
</svg>
